<svg width="1402" height="402" viewBox="0 0 1402 402" fill="none" xmlns="http://www.w3.org/2000/svg">
<path d="M553.306 205.464V41.2836H628.359C643.37 41.2836 656.27 43.7072 667.059 48.5544C678.004 53.4017 686.448 60.438 692.39 69.6633C698.332 78.7323 701.302 89.5213 701.302 102.03C701.302 114.383 698.332 125.094 692.39 134.163C686.448 143.232 678.004 150.268 667.059 155.272C656.27 160.119 643.37 162.542 628.359 162.542H579.105L599.745 142.372V205.464H553.306ZM599.745 147.297L579.105 125.954H625.545C635.239 125.954 642.432 123.843 647.123 119.621C651.97 115.399 654.394 109.536 654.394 102.03C654.394 94.3685 651.97 88.4268 647.123 84.205C642.432 79.9832 635.239 77.8723 625.545 77.8723H579.105L599.745 56.5289V147.297Z" fill="#FBFBFB"/>
<path d="M723.945 205.464V41.2836H770.384V205.464H723.945Z" fill="#FBFBFB"/>
<path d="M786.537 205.464L858.307 105.783L858.072 138.854L789.117 41.2836H841.42L885.514 104.845L863.232 105.079L906.623 41.2836H956.815L887.859 136.977V104.141L960.568 205.464H907.092L862.294 138.619H883.638L839.544 205.464H786.537Z" fill="#FBFBFB"/>
<path d="M1014 104.845H1090.23V139.557H1014V104.845ZM1017.29 169.579H1103.13V205.464H971.315V41.2836H1100.08V77.1687H1017.29V169.579Z" fill="#FBFBFB"/>
<path d="M1128.9 205.464V41.2836H1175.34V168.641H1253.68V205.464H1128.9Z" fill="#FBFBFB"/>
<path d="M1329.29 208.747C1315.84 208.747 1302.87 207.106 1290.36 203.822C1278 200.382 1267.92 196.004 1260.1 190.688L1275.35 156.444C1282.7 161.135 1291.14 165.044 1300.68 168.171C1310.37 171.142 1319.99 172.628 1329.53 172.628C1335.94 172.628 1341.1 172.081 1345.01 170.986C1348.91 169.735 1351.73 168.171 1353.45 166.295C1355.33 164.262 1356.26 161.917 1356.26 159.259C1356.26 155.506 1354.54 152.535 1351.1 150.346C1347.66 148.157 1343.21 146.359 1337.74 144.952C1332.26 143.544 1326.16 142.137 1319.44 140.73C1312.87 139.323 1306.23 137.524 1299.5 135.335C1292.94 133.146 1286.92 130.332 1281.44 126.892C1275.97 123.296 1271.52 118.683 1268.08 113.054C1264.64 107.268 1262.92 99.9976 1262.92 91.2413C1262.92 81.3905 1265.57 72.4778 1270.89 64.5034C1276.36 56.5289 1284.49 50.1181 1295.28 45.2708C1306.07 40.4236 1319.52 38 1335.62 38C1346.41 38 1356.97 39.2509 1367.29 41.7527C1377.76 44.0981 1387.07 47.6163 1395.2 52.3071L1380.89 86.785C1373.07 82.5632 1365.33 79.436 1357.67 77.4033C1350.01 75.2142 1342.58 74.1197 1335.39 74.1197C1328.98 74.1197 1323.82 74.8233 1319.91 76.2305C1316 77.4814 1313.19 79.2014 1311.47 81.3905C1309.75 83.5795 1308.89 86.0813 1308.89 88.8959C1308.89 92.4922 1310.53 95.3849 1313.81 97.574C1317.25 99.6067 1321.71 101.327 1327.18 102.734C1332.81 103.985 1338.91 105.314 1345.48 106.721C1352.2 108.128 1358.84 109.927 1365.41 112.116C1372.13 114.148 1378.23 116.963 1383.71 120.559C1389.18 123.999 1393.56 128.612 1396.84 134.397C1400.28 140.026 1402 147.141 1402 155.741C1402 165.279 1399.26 174.113 1393.79 182.244C1388.47 190.219 1380.42 196.629 1369.63 201.477C1359 206.324 1345.55 208.747 1329.29 208.747Z" fill="#FBFBFB"/>
<path d="M552 362.015V263.577H579.844V362.015H552Z" fill="#FBFBFB"/>
<path d="M599.653 362.015V263.577H622.575L676.857 329.108H666.029V263.577H693.31V362.015H670.388L616.107 296.483H626.935V362.015H599.653Z" fill="#FBFBFB"/>
<path d="M747.544 363.983C739.482 363.983 731.7 362.999 724.2 361.03C716.794 358.968 710.747 356.343 706.06 353.155L715.2 332.624C719.607 335.436 724.669 337.78 730.388 339.655C736.2 341.436 741.966 342.327 747.685 342.327C751.529 342.327 754.622 341.999 756.966 341.343C759.31 340.593 760.997 339.655 762.029 338.53C763.154 337.311 763.716 335.905 763.716 334.311C763.716 332.061 762.685 330.28 760.622 328.968C758.56 327.655 755.888 326.577 752.607 325.733C749.325 324.89 745.669 324.046 741.638 323.202C737.7 322.358 733.716 321.28 729.685 319.968C725.747 318.655 722.138 316.968 718.857 314.905C715.575 312.749 712.903 309.983 710.841 306.608C708.778 303.139 707.747 298.78 707.747 293.53C707.747 287.624 709.341 282.28 712.528 277.499C715.81 272.718 720.685 268.874 727.153 265.967C733.622 263.061 741.685 261.608 751.341 261.608C757.81 261.608 764.138 262.358 770.325 263.858C776.607 265.264 782.185 267.374 787.06 270.186L778.482 290.858C773.794 288.327 769.154 286.452 764.56 285.233C759.966 283.921 755.513 283.264 751.2 283.264C747.357 283.264 744.263 283.686 741.919 284.53C739.575 285.28 737.888 286.311 736.857 287.624C735.825 288.936 735.31 290.436 735.31 292.124C735.31 294.28 736.294 296.014 738.263 297.327C740.325 298.546 742.997 299.577 746.279 300.421C749.654 301.171 753.31 301.968 757.247 302.811C761.279 303.655 765.263 304.733 769.2 306.046C773.232 307.265 776.888 308.952 780.169 311.108C783.451 313.171 786.076 315.936 788.044 319.405C790.107 322.78 791.138 327.046 791.138 332.202C791.138 337.921 789.497 343.218 786.216 348.093C783.029 352.874 778.201 356.718 771.732 359.624C765.357 362.53 757.294 363.983 747.544 363.983Z" fill="#FBFBFB"/>
<path d="M804 362.015V263.577H849C858 263.577 865.734 265.03 872.203 267.936C878.766 270.843 883.828 275.061 887.391 280.593C890.953 286.03 892.735 292.499 892.735 299.999C892.735 307.405 890.953 313.827 887.391 319.265C883.828 324.702 878.766 328.921 872.203 331.921C865.734 334.827 858 336.28 849 336.28H819.469L831.844 324.186V362.015H804ZM831.844 327.14L819.469 314.343H847.312C853.125 314.343 857.438 313.077 860.25 310.546C863.156 308.015 864.609 304.499 864.609 299.999C864.609 295.405 863.156 291.843 860.25 289.311C857.438 286.78 853.125 285.514 847.312 285.514H819.469L831.844 272.718V327.14Z" fill="#FBFBFB"/>
<path d="M931.904 301.686H977.607V322.499H931.904V301.686ZM933.873 340.499H985.342V362.015H906.31V263.577H983.514V285.093H933.873V340.499Z" fill="#FBFBFB"/>
<path d="M1049.87 363.983C1042.09 363.983 1034.87 362.765 1028.22 360.327C1021.65 357.796 1015.93 354.233 1011.06 349.64C1006.28 345.046 1002.53 339.655 999.809 333.468C997.09 327.186 995.731 320.296 995.731 312.796C995.731 305.296 997.09 298.452 999.809 292.264C1002.53 285.983 1006.28 280.546 1011.06 275.952C1015.93 271.358 1021.65 267.842 1028.22 265.405C1034.87 262.874 1042.09 261.608 1049.87 261.608C1058.97 261.608 1067.07 263.202 1074.2 266.389C1081.42 269.577 1087.42 274.171 1092.2 280.171L1074.48 296.202C1071.29 292.452 1067.78 289.593 1063.93 287.624C1060.18 285.655 1055.97 284.671 1051.28 284.671C1047.25 284.671 1043.54 285.327 1040.17 286.639C1036.79 287.952 1033.89 289.874 1031.45 292.405C1029.11 294.843 1027.23 297.796 1025.82 301.264C1024.51 304.733 1023.86 308.577 1023.86 312.796C1023.86 317.015 1024.51 320.858 1025.82 324.327C1027.23 327.796 1029.11 330.796 1031.45 333.327C1033.89 335.765 1036.79 337.64 1040.17 338.952C1043.54 340.265 1047.25 340.921 1051.28 340.921C1055.97 340.921 1060.18 339.936 1063.93 337.968C1067.78 335.999 1071.29 333.14 1074.48 329.39L1092.2 345.421C1087.42 351.327 1081.42 355.921 1074.2 359.202C1067.07 362.39 1058.97 363.983 1049.87 363.983Z" fill="#FBFBFB"/>
<path d="M1124.74 362.015V285.655H1094.51V263.577H1182.68V285.655H1152.59V362.015H1124.74Z" fill="#FBFBFB"/>
<path d="M1241.32 363.983C1233.45 363.983 1226.18 362.718 1219.53 360.187C1212.87 357.655 1207.06 354.093 1202.09 349.499C1197.21 344.812 1193.42 339.374 1190.7 333.186C1187.98 326.999 1186.62 320.202 1186.62 312.796C1186.62 305.389 1187.98 298.593 1190.7 292.405C1193.42 286.218 1197.21 280.827 1202.09 276.233C1207.06 271.546 1212.87 267.936 1219.53 265.405C1226.18 262.874 1233.45 261.608 1241.32 261.608C1249.29 261.608 1256.56 262.874 1263.12 265.405C1269.78 267.936 1275.54 271.546 1280.42 276.233C1285.29 280.827 1289.09 286.218 1291.81 292.405C1294.62 298.593 1296.03 305.389 1296.03 312.796C1296.03 320.202 1294.62 327.046 1291.81 333.327C1289.09 339.515 1285.29 344.905 1280.42 349.499C1275.54 354.093 1269.78 357.655 1263.12 360.187C1256.56 362.718 1249.29 363.983 1241.32 363.983ZM1241.32 340.921C1245.07 340.921 1248.54 340.265 1251.73 338.952C1255.01 337.64 1257.82 335.765 1260.17 333.327C1262.6 330.796 1264.48 327.796 1265.79 324.327C1267.2 320.858 1267.9 317.015 1267.9 312.796C1267.9 308.483 1267.2 304.639 1265.79 301.264C1264.48 297.796 1262.6 294.843 1260.17 292.405C1257.82 289.874 1255.01 287.952 1251.73 286.639C1248.54 285.327 1245.07 284.671 1241.32 284.671C1237.57 284.671 1234.06 285.327 1230.78 286.639C1227.59 287.952 1224.78 289.874 1222.34 292.405C1219.99 294.843 1218.12 297.796 1216.71 301.264C1215.4 304.639 1214.74 308.483 1214.74 312.796C1214.74 317.015 1215.4 320.858 1216.71 324.327C1218.12 327.796 1219.99 330.796 1222.34 333.327C1224.78 335.765 1227.59 337.64 1230.78 338.952C1234.06 340.265 1237.57 340.921 1241.32 340.921Z" fill="#FBFBFB"/>
<path d="M1310.61 362.015V263.577H1355.61C1364.61 263.577 1372.34 265.03 1378.81 267.936C1385.37 270.843 1390.44 275.061 1394 280.593C1397.56 286.03 1399.34 292.499 1399.34 299.999C1399.34 307.405 1397.56 313.827 1394 319.265C1390.44 324.608 1385.37 328.733 1378.81 331.64C1372.34 334.452 1364.61 335.858 1355.61 335.858H1326.08L1338.45 324.186V362.015H1310.61ZM1371.5 362.015L1347.03 326.155H1376.7L1401.31 362.015H1371.5ZM1338.45 327.14L1326.08 314.343H1353.92C1359.73 314.343 1364.05 313.077 1366.86 310.546C1369.77 308.015 1371.22 304.499 1371.22 299.999C1371.22 295.405 1369.77 291.843 1366.86 289.311C1364.05 286.78 1359.73 285.514 1353.92 285.514H1326.08L1338.45 272.718V327.14Z" fill="#FBFBFB"/>
<path d="M357.333 44.6667V134H402V44.6667V0H357.333H268V44.6667H357.333Z" fill="#FBFBFB"/>
<path d="M44.6667 44.6667V134H0V44.6667V0H44.6667H134V44.6667H44.6667Z" fill="#FBFBFB"/>
<path d="M357.333 357.333V268H402V357.333V402H357.333H268V357.333H357.333Z" fill="#FBFBFB"/>
<path d="M44.6667 357.333V268H0V357.333V402H44.6667H134V357.333H44.6667Z" fill="#FBFBFB"/>
<rect x="200.827" y="200.827" width="55.9137" height="55.9137" fill="#FBFBFB"/>
<rect x="144.914" y="256.741" width="55.9137" height="55.9137" fill="#FBFBFB" fill-opacity="0.8"/>
<rect x="256.741" y="200.827" width="55.9137" height="55.9137" fill="#FBFBFB" fill-opacity="0.9"/>
<rect x="200.827" y="144.914" width="55.9137" height="55.9137" fill="#FBFBFB" fill-opacity="0.8"/>
<rect x="256.741" y="89" width="55.9137" height="55.9137" fill="#FBFBFB" fill-opacity="0.2"/>
<rect x="144.914" y="144.914" width="55.9137" height="55.9137" fill="#FBFBFB" fill-opacity="0.5"/>
<rect x="89" y="200.827" width="55.9137" height="55.9137" fill="#FBFBFB" fill-opacity="0.6"/>
</svg>
